<svg width="25" height="24" viewBox="0 0 25 24" fill="none" xmlns="http://www.w3.org/2000/svg">
<path d="M14.3173 9.49153C14.5888 9.80439 15.0625 9.83794 15.3753 9.56648C15.6882 9.29501 15.7218 8.82132 15.4503 8.50847L14.3173 9.49153ZM10.253 14.5085C9.98153 14.1956 9.50785 14.1621 9.19499 14.4335C8.88213 14.705 8.84858 15.1787 9.12005 15.4915L10.253 14.5085ZM13.0352 7C13.0352 6.58579 12.6994 6.25 12.2852 6.25C11.8709 6.25 11.5352 6.58579 11.5352 7H13.0352ZM11.5352 17C11.5351 17.4142 11.8709 17.75 12.2851 17.75C12.6994 17.75 13.0351 17.4142 13.0352 17L11.5352 17ZM20.5352 12C20.5352 16.5563 16.8415 20.25 12.2852 20.25V21.75C17.6699 21.75 22.0352 17.3848 22.0352 12H20.5352ZM12.2852 20.25C7.72881 20.25 4.03516 16.5563 4.03516 12H2.53516C2.53516 17.3848 6.90038 21.75 12.2852 21.75V20.25ZM4.03516 12C4.03516 7.44365 7.72881 3.75 12.2852 3.75V2.25C6.90038 2.25 2.53516 6.61522 2.53516 12H4.03516ZM12.2852 3.75C16.8415 3.75 20.5352 7.44365 20.5352 12H22.0352C22.0352 6.61522 17.6699 2.25 12.2852 2.25V3.75ZM12.2852 11.25C11.5841 11.25 10.9834 11.0592 10.5799 10.7902C10.1711 10.5176 10.0352 10.2235 10.0352 10H8.53516C8.53516 10.8811 9.07083 11.5869 9.74781 12.0383C10.43 12.4931 11.3293 12.75 12.2852 12.75V11.25ZM10.0352 10C10.0352 9.7765 10.1711 9.48236 10.5799 9.20982C10.9834 8.94078 11.5841 8.75 12.2852 8.75V7.25C11.3293 7.25 10.43 7.50693 9.74781 7.96175C9.07083 8.41307 8.53516 9.11893 8.53516 10H10.0352ZM12.2852 8.75C13.2406 8.75 13.9774 9.09978 14.3173 9.49153L15.4503 8.50847C14.7528 7.70461 13.5506 7.25 12.2852 7.25V8.75ZM12.2852 12.75C12.9862 12.75 13.5869 12.9408 13.9905 13.2098C14.3993 13.4824 14.5352 13.7765 14.5352 14H16.0352C16.0352 13.1189 15.4995 12.4131 14.8225 11.9617C14.1403 11.5069 13.241 11.25 12.2852 11.25V12.75ZM11.5352 7V8H13.0352V7H11.5352ZM11.5352 16L11.5352 17L13.0352 17L13.0352 16L11.5352 16ZM12.2852 15.25C11.3297 15.25 10.5929 14.9002 10.253 14.5085L9.12005 15.4915C9.81755 16.2954 11.0198 16.75 12.2852 16.75L12.2852 15.25ZM14.5352 14C14.5352 14.2235 14.3993 14.5176 13.9905 14.7902C13.5869 15.0592 12.9862 15.25 12.2852 15.25V16.75C13.241 16.75 14.1403 16.4931 14.8225 16.0383C15.4995 15.5869 16.0352 14.8811 16.0352 14H14.5352ZM11.5352 8L11.5352 16L13.0352 16L13.0352 8L11.5352 8Z" fill="#6C7787"/>
</svg>
