<svg width="85" height="66" viewBox="0 0 85 66" fill="none" xmlns="http://www.w3.org/2000/svg">
<path d="M4.98553 30.7511C8.4121 29.1677 12.3617 29.2873 16.0955 29.6603C16.12 29.6622 16.1445 29.659 16.1676 29.6509C16.1907 29.6428 16.2119 29.63 16.2299 29.6133C16.2478 29.5967 16.2621 29.5764 16.2718 29.554C16.2815 29.5315 16.2865 29.5073 16.2864 29.4828C16.2855 29.4106 16.2614 29.3407 16.2177 29.2832C16.174 29.2258 16.1129 29.184 16.0436 29.164C13.1177 28.3047 10.0477 28.0492 7.02001 28.4129C20.4179 20.1185 39.9153 13.578 53.5976 24.5164C49.4014 26.3776 45.2801 29.0079 42.9638 33.1241C41.543 35.4672 40.8681 38.1868 41.0284 40.9223C41.3877 47.6026 47.7811 52.8735 54.2446 51.1535C65.9741 48.032 66.096 32.4243 58.1001 24.0563C64.1172 21.7025 70.4566 20.1421 76.8312 19.0874C76.8658 19.0822 76.897 19.0636 76.918 19.0357C76.9391 19.0077 76.9484 18.9727 76.9438 18.938C76.9406 18.9097 76.9319 18.8823 76.9182 18.8574C76.9044 18.8325 76.8859 18.8106 76.8636 18.7929C76.8414 18.7751 76.8159 18.762 76.7885 18.7541C76.7612 18.7462 76.7326 18.7438 76.7043 18.747C70.0726 19.5011 63.4976 20.8408 57.1896 23.0699C43.3873 9.37863 20.6028 15.7985 7.51057 26.9867C9.52028 25.2679 9.75679 21.194 9.18594 19.2415C9.17264 19.177 9.13477 19.1202 9.08033 19.0832C9.0259 19.0461 8.95918 19.0317 8.89432 19.043C8.83601 19.058 8.78286 19.0885 8.74057 19.1313C8.69828 19.1742 8.66844 19.2277 8.65426 19.2862C7.77834 22.8782 6.09616 25.8015 3.51582 29.1015C2.45755 30.4557 2.35224 31.967 4.98553 30.7511ZM57.219 28.4651C62.3528 35.0511 61.1544 47.2991 53.2024 48.7765C48.5943 49.6345 44.1238 46.4856 43.302 41.8702C42.8295 39.1873 43.3026 36.4237 44.6404 34.0507C46.7671 30.0544 50.732 27.4636 54.7292 25.527C55.6508 26.4249 56.4845 27.4087 57.219 28.4651Z" fill="#002B6B"/>
<path d="M61.7069 51.3526C62.3486 50.681 63.0483 50.0674 63.7979 49.519C63.8307 49.495 63.8705 49.4826 63.9111 49.4836C63.9517 49.4846 63.9909 49.4989 64.0224 49.5245C64.054 49.55 64.0763 49.5852 64.0858 49.6247C64.0953 49.6642 64.0914 49.7057 64.0749 49.7428C63.8588 50.1933 63.5538 50.5953 63.1781 50.9246C62.8025 51.2539 62.364 51.5038 61.8892 51.659C61.85 51.6703 61.8082 51.6683 61.7703 51.6533C61.7324 51.6383 61.7005 51.6112 61.6797 51.5762C61.6589 51.5411 61.6502 51.5002 61.6551 51.4597C61.6601 51.4193 61.6783 51.3816 61.7069 51.3526Z" fill="#002B6B"/>
<path d="M65.3627 47.5568C67.3553 43.4248 68.3378 38.531 67.3695 33.6091C67.3427 33.509 67.4941 33.4779 67.5431 33.5626C70.0322 37.9935 68.7523 44.2069 65.5074 47.6516C65.4926 47.6644 65.474 47.6721 65.4545 47.6734C65.435 47.6747 65.4155 47.6697 65.3992 47.6589C65.3828 47.6482 65.3704 47.6324 65.3638 47.614C65.3572 47.5955 65.3569 47.5755 65.3627 47.5568Z" fill="#002B6B"/>
<path d="M25.6757 13.9505C23.6902 14.2935 21.7745 14.9599 20.0047 15.9231C19.992 15.9284 19.9779 15.9292 19.9647 15.9253C19.9514 15.9215 19.94 15.9132 19.9322 15.9018C19.9244 15.8904 19.9207 15.8768 19.9218 15.863C19.9229 15.8493 19.9288 15.8364 19.9383 15.8264C21.3769 14.3346 23.6194 13.6002 25.6742 13.8293C25.6879 13.8323 25.7003 13.8398 25.7092 13.8507C25.7181 13.8616 25.723 13.8752 25.7232 13.8893C25.7234 13.9034 25.7188 13.9171 25.7101 13.9282C25.7015 13.9393 25.6894 13.9472 25.6757 13.9505Z" fill="#002B6B"/>
</svg>
