<svg width="25" height="24" viewBox="0 0 25 24" fill="none" xmlns="http://www.w3.org/2000/svg">
<path d="M4.64258 6C4.64258 4.89543 5.53801 4 6.64258 4H8.64258C9.74715 4 10.6426 4.89543 10.6426 6V8C10.6426 9.10457 9.74715 10 8.64258 10H6.64258C5.53801 10 4.64258 9.10457 4.64258 8V6Z" stroke="#6C7787" stroke-width="1.5" stroke-linecap="round" stroke-linejoin="round"/>
<path d="M14.6426 6C14.6426 4.89543 15.538 4 16.6426 4H18.6426C19.7471 4 20.6426 4.89543 20.6426 6V8C20.6426 9.10457 19.7471 10 18.6426 10H16.6426C15.538 10 14.6426 9.10457 14.6426 8V6Z" stroke="#6C7787" stroke-width="1.5" stroke-linecap="round" stroke-linejoin="round"/>
<path d="M4.64258 16C4.64258 14.8954 5.53801 14 6.64258 14H8.64258C9.74715 14 10.6426 14.8954 10.6426 16V18C10.6426 19.1046 9.74715 20 8.64258 20H6.64258C5.53801 20 4.64258 19.1046 4.64258 18V16Z" stroke="#6C7787" stroke-width="1.5" stroke-linecap="round" stroke-linejoin="round"/>
<path d="M14.6426 16C14.6426 14.8954 15.538 14 16.6426 14H18.6426C19.7471 14 20.6426 14.8954 20.6426 16V18C20.6426 19.1046 19.7471 20 18.6426 20H16.6426C15.538 20 14.6426 19.1046 14.6426 18V16Z" stroke="#6C7787" stroke-width="1.5" stroke-linecap="round" stroke-linejoin="round"/>
</svg>
