<svg width="25" height="24" viewBox="0 0 25 24" fill="none" xmlns="http://www.w3.org/2000/svg">
<path d="M19.3574 11H5.35742M19.3574 11C20.462 11 21.3574 11.8954 21.3574 13V19C21.3574 20.1046 20.462 21 19.3574 21H5.35742C4.25285 21 3.35742 20.1046 3.35742 19V13C3.35742 11.8954 4.25285 11 5.35742 11M19.3574 11V9C19.3574 7.89543 18.462 7 17.3574 7M5.35742 11V9C5.35742 7.89543 6.25285 7 7.35742 7M7.35742 7V5C7.35742 3.89543 8.25285 3 9.35742 3H15.3574C16.462 3 17.3574 3.89543 17.3574 5V7M7.35742 7H17.3574" stroke="#6C7787" stroke-width="1.5" stroke-linecap="round" stroke-linejoin="round"/>
</svg>
