<svg width="25" height="24" viewBox="0 0 25 24" fill="none" xmlns="http://www.w3.org/2000/svg">
<path d="M4.42871 5C4.42871 4.44772 4.87643 4 5.42871 4H19.4287C19.981 4 20.4287 4.44772 20.4287 5V7C20.4287 7.55228 19.981 8 19.4287 8H5.42871C4.87643 8 4.42871 7.55228 4.42871 7V5Z" stroke="#6C7787" stroke-width="1.5" stroke-linecap="round" stroke-linejoin="round"/>
<path d="M4.42871 13C4.42871 12.4477 4.87643 12 5.42871 12H11.4287C11.981 12 12.4287 12.4477 12.4287 13V19C12.4287 19.5523 11.981 20 11.4287 20H5.42871C4.87643 20 4.42871 19.5523 4.42871 19V13Z" stroke="#6C7787" stroke-width="1.5" stroke-linecap="round" stroke-linejoin="round"/>
<path d="M16.4287 13C16.4287 12.4477 16.8764 12 17.4287 12H19.4287C19.981 12 20.4287 12.4477 20.4287 13V19C20.4287 19.5523 19.981 20 19.4287 20H17.4287C16.8764 20 16.4287 19.5523 16.4287 19V13Z" stroke="#6C7787" stroke-width="1.5" stroke-linecap="round" stroke-linejoin="round"/>
</svg>
