<svg width="14" height="13" viewBox="0 0 14 13" fill="none" xmlns="http://www.w3.org/2000/svg">
<path d="M4.86715 4.14753L6.4909 0.877525C6.53816 0.78289 6.61086 0.703294 6.70083 0.647662C6.7908 0.592029 6.89449 0.562561 7.00027 0.562561C7.10605 0.562561 7.20974 0.592029 7.29971 0.647662C7.38969 0.703294 7.46238 0.78289 7.50965 0.877525L9.1334 4.14753L12.7634 4.67502C12.8681 4.68954 12.9666 4.73321 13.0477 4.80103C13.1288 4.86886 13.1891 4.95811 13.2219 5.0586C13.2547 5.1591 13.2586 5.26678 13.2331 5.36937C13.2076 5.47196 13.1538 5.56531 13.0778 5.63877L10.2465 8.1819L11.0715 11.7763C11.1509 12.2375 10.6634 12.5888 10.2465 12.3713L7.00027 10.6738L3.7534 12.3713C3.33715 12.5894 2.84965 12.2375 2.92902 11.7757L3.54902 8.1819L0.922771 5.63815C0.847137 5.56463 0.793645 5.47137 0.768373 5.36897C0.743102 5.26657 0.747066 5.15913 0.779814 5.05887C0.812562 4.9586 0.872781 4.86954 0.953626 4.8018C1.03447 4.73405 1.1327 4.69035 1.23715 4.67565L4.86715 4.14753Z" fill="#FFC805"/>
</svg>
